<?xml version="1.0" encoding="UTF-8"?>
<svg width="10px" height="8px" viewBox="0 0 10 8" version="1.1" xmlns="http://www.w3.org/2000/svg" xmlns:xlink="http://www.w3.org/1999/xlink">
    <title>编组 57</title>
    <g id="页面-1" stroke="none" stroke-width="1" fill="none" fill-rule="evenodd">
        <g id="06-汽车2" transform="translate(-67.000000, -227.000000)">
            <g id="编组-6" transform="translate(0.000000, 136.000000)">
                <g id="编组-14" transform="translate(0.000000, 28.000000)">
                    <g id="编组-62备份" transform="translate(15.000000, 10.000000)">
                        <g id="编组-59" transform="translate(0.000000, 31.000000)">
                            <g id="编组-57" transform="translate(52.000000, 22.000000)">
                                <path d="M3,0 L10,0 L10,0 L10,5 C10,6.65685425 8.65685425,8 7,8 L0,8 L0,8 L0,3 C-2.02906125e-16,1.34314575 1.34314575,2.02906125e-16 3,0 Z" id="矩形" fill="#0086F6"></path>
                                <g id="duigou-3" transform="translate(1.500000, 1.500000)" fill="#FFFFFF" fill-rule="nonzero">
                                    <path d="M7,0.456664337 C7.00009437,0.575932002 6.9525741,0.690302818 6.86798854,0.774386513 L2.76668744,4.87568761 C2.63020115,5.01217389 2.4892399,5.19117231 2.26549189,4.9674243 L0.144360719,2.7925936 C-0.0304051974,2.62470463 -0.0488166844,2.35143938 0.1018486,2.1616242 C0.18336229,2.06756527 0.300366966,2.01170456 0.42475965,2.00745908 C0.549152333,2.00321359 0.669693326,2.05096694 0.757430274,2.13924939 L2.44672778,3.8285469 C2.46021714,3.84249183 2.47878818,3.85036547 2.49818982,3.85036547 C2.51759147,3.85036547 2.53616251,3.84249183 2.54965186,3.8285469 L6.25044402,0.125517269 C6.35200074,0.0185043682 6.50394033,-0.0244164188 6.646478,0.0136432695 C6.85146778,0.0635614304 6.9968172,0.245708179 7,0.456664337 L7,0.456664337 Z" id="路径"></path>
                                </g>
                            </g>
                        </g>
                    </g>
                </g>
            </g>
        </g>
    </g>
</svg>